<svg width="90" height="90" viewBox="0 0 90 90" fill="none" xmlns="http://www.w3.org/2000/svg">
<path opacity="0.2" d="M11.2475 36.5625H28.1225V73.125H11.2475C10.5016 73.125 9.78621 72.8287 9.25876 72.3012C8.73131 71.7738 8.435 71.0584 8.435 70.3125V39.375C8.435 38.6291 8.73131 37.9137 9.25876 37.3863C9.78621 36.8588 10.5016 36.5625 11.2475 36.5625Z" fill="#355DFB"/>
<path d="M11.2475 36.5625H28.1225V73.125H11.2475C10.5016 73.125 9.78621 72.8287 9.25876 72.3012C8.73131 71.7738 8.435 71.0584 8.435 70.3125V39.375C8.435 38.6291 8.73131 37.9137 9.25876 37.3863C9.78621 36.8588 10.5016 36.5625 11.2475 36.5625V36.5625Z" stroke="#355DFB" stroke-linecap="round" stroke-linejoin="round"/>
<path d="M28.1225 36.5625L42.185 8.4375C43.6624 8.4375 45.1253 8.72849 46.4902 9.29386C47.8551 9.85922 49.0953 10.6879 50.1399 11.7325C51.1846 12.7772 52.0133 14.0174 52.5786 15.3823C53.144 16.7472 53.435 18.2101 53.435 19.6875V28.125H75.1881C75.9857 28.125 76.7742 28.2946 77.5012 28.6226C78.2282 28.9506 78.8772 29.4294 79.405 30.0274C79.9329 30.6253 80.3275 31.3286 80.5628 32.0907C80.7981 32.8528 80.8686 33.6563 80.7697 34.4477L76.5509 68.1977C76.3809 69.5581 75.7198 70.8096 74.692 71.7169C73.6642 72.6243 72.3404 73.125 70.9693 73.125H28.1225" stroke="#355DFB" stroke-linecap="round" stroke-linejoin="round"/>
</svg>
