<svg width="90" height="90" viewBox="0 0 90 90" fill="none" xmlns="http://www.w3.org/2000/svg">
<path opacity="0.2" d="M14.8668 25.3125H77.9471L68.6663 57.7953C68.3305 58.9706 67.621 60.0046 66.6451 60.7407C65.6692 61.4768 64.4801 61.875 63.2577 61.875H29.5561C28.3338 61.875 27.1447 61.4768 26.1688 60.7407C25.1929 60.0046 24.4834 58.9706 24.1476 57.7953L14.8668 25.3125Z" fill="#355DFB"/>
<path d="M28.125 81.5625C31.2316 81.5625 33.75 79.0441 33.75 75.9375C33.75 72.8309 31.2316 70.3125 28.125 70.3125C25.0184 70.3125 22.5 72.8309 22.5 75.9375C22.5 79.0441 25.0184 81.5625 28.125 81.5625Z" stroke="#355DFB" stroke-linecap="round" stroke-linejoin="round"/>
<path d="M64.6875 81.5625C67.7941 81.5625 70.3125 79.0441 70.3125 75.9375C70.3125 72.8309 67.7941 70.3125 64.6875 70.3125C61.5809 70.3125 59.0625 72.8309 59.0625 75.9375C59.0625 79.0441 61.5809 81.5625 64.6875 81.5625Z" stroke="#355DFB" stroke-linecap="round" stroke-linejoin="round"/>
<path d="M14.8661 25.3125H77.9464L68.6656 57.7953C68.3298 58.9706 67.6203 60.0046 66.6444 60.7407C65.6685 61.4768 64.4794 61.875 63.2571 61.875H29.5554C28.3331 61.875 27.144 61.4768 26.1681 60.7407C25.1922 60.0046 24.4827 58.9706 24.1469 57.7953L11.431 13.2898C11.2631 12.7022 10.9084 12.1852 10.4204 11.8171C9.93248 11.4491 9.33793 11.25 8.72674 11.25H2.8125" stroke="#355DFB" stroke-linecap="round" stroke-linejoin="round"/>
</svg>
