<svg width="90" height="90" viewBox="0 0 90 90" fill="none" xmlns="http://www.w3.org/2000/svg">
<path opacity="0.2" d="M73.9161 12.6135L8.41022 31.0895C7.85914 31.2449 7.36862 31.5649 7.00424 32.0065C6.63985 32.4482 6.41895 32.9906 6.37106 33.5612C6.32317 34.1317 6.45058 34.7034 6.73625 35.1996C7.02192 35.6958 7.45225 36.093 7.96972 36.3382L38.0673 50.5949C38.6543 50.873 39.127 51.3456 39.405 51.9327L53.6618 82.0302C53.9069 82.5477 54.3041 82.978 54.8003 83.2637C55.2966 83.5493 55.8682 83.6768 56.4388 83.6289C57.0093 83.581 57.5517 83.3601 57.9934 82.9957C58.4351 82.6313 58.755 82.1408 58.9104 81.5897L77.3864 16.0839C77.5221 15.6027 77.5272 15.094 77.4009 14.6103C77.2747 14.1265 77.0218 13.6852 76.6683 13.3316C76.3148 12.9781 75.8734 12.7252 75.3896 12.599C74.9059 12.4728 74.3972 12.4778 73.9161 12.6135Z" fill="#355DFB"/>
<path d="M73.9161 12.6135L8.41022 31.0895C7.85914 31.2449 7.36862 31.5649 7.00424 32.0065C6.63985 32.4482 6.41895 32.9906 6.37106 33.5612C6.32317 34.1317 6.45058 34.7034 6.73625 35.1996C7.02192 35.6958 7.45225 36.093 7.96972 36.3382L38.0673 50.5949C38.6543 50.873 39.127 51.3456 39.405 51.9327L53.6618 82.0302C53.9069 82.5477 54.3041 82.978 54.8003 83.2637C55.2966 83.5493 55.8682 83.6767 56.4388 83.6289C57.0093 83.581 57.5517 83.3601 57.9934 82.9957C58.4351 82.6313 58.755 82.1408 58.9104 81.5897L77.3864 16.0839C77.5222 15.6027 77.5272 15.094 77.4009 14.6103C77.2747 14.1265 77.0218 13.6852 76.6683 13.3316C76.3148 12.9781 75.8734 12.7252 75.3897 12.599C74.9059 12.4728 74.3972 12.4778 73.9161 12.6135Z" stroke="#355DFB" stroke-linecap="round" stroke-linejoin="round"/>
<path d="M38.9744 51.0249L54.8843 35.115" stroke="#355DFB" stroke-linecap="round" stroke-linejoin="round"/>
</svg>
